<?xml version="1.0" standalone="no"?>
<!DOCTYPE svg PUBLIC "-//W3C//DTD SVG 20010904//EN"
 "http://www.w3.org/TR/2001/REC-SVG-20010904/DTD/svg10.dtd">
<svg version="1.0" xmlns="http://www.w3.org/2000/svg"
 width="294.000000pt" height="300.000000pt" viewBox="0 0 294.000000 300.000000"
 preserveAspectRatio="xMidYMid meet">
<metadata>
Created by potrace 1.10, written by Peter Selinger 2001-2011
</metadata>
<g transform="translate(0.000000,300.000000) scale(0.100000,-0.100000)"
fill="#000000" stroke="none">
<path d="M1050 2783 c-8 -4 -85 -63 -170 -132 -85 -69 -202 -163 -260 -209
-269 -215 -300 -243 -300 -268 0 -49 31 -64 133 -64 l92 0 -3 -236 c-3 -263 1
-284 57 -284 59 0 61 9 61 308 0 281 -4 316 -42 327 -22 8 -58 -3 -58 -16 0
-6 5 -7 10 -4 6 3 10 1 10 -4 0 -6 7 -11 15 -11 31 0 35 -38 35 -295 -1 -219
-3 -257 -16 -262 -34 -13 -39 14 -41 225 -2 114 -3 217 -3 229 0 32 -43 51
-120 54 -62 2 -90 11 -90 30 0 11 63 74 95 95 14 9 22 21 18 27 -4 6 -1 7 6 3
12 -8 41 15 104 82 17 17 36 32 42 32 7 0 25 11 41 25 36 32 39 34 97 73 26
18 47 39 47 46 0 8 16 21 35 30 22 11 33 22 29 29 -4 7 -4 9 1 5 11 -10 47 11
40 23 -4 5 3 9 14 9 15 0 19 5 14 18 -3 9 -3 14 2 10 9 -8 95 48 95 62 0 19
37 10 64 -15 14 -13 26 -22 26 -20 0 2 12 -7 26 -20 15 -14 30 -25 35 -25 4 0
11 -9 14 -21 4 -13 12 -18 22 -15 9 4 17 -1 20 -14 3 -10 14 -22 24 -25 10 -4
19 -11 19 -17 0 -5 8 -7 17 -4 10 4 14 4 11 1 -7 -7 55 -75 68 -75 10 0 44
-41 44 -53 0 -5 8 -3 17 4 11 10 14 10 9 2 -4 -7 -4 -13 1 -13 4 0 35 -25 68
-55 33 -30 66 -53 72 -50 7 2 16 -7 19 -20 3 -14 11 -22 16 -19 5 4 23 -10 39
-30 17 -19 33 -35 37 -35 20 3 32 -2 27 -11 -3 -5 -2 -10 4 -10 6 0 16 -10 22
-22 18 -33 -11 -48 -95 -48 -112 -1 -108 9 -107 -243 0 -197 -1 -217 -19 -239
-12 -15 -22 -20 -29 -13 -12 12 -18 446 -6 465 4 7 2 16 -6 21 -10 6 -11 9 -1
9 6 0 12 12 12 26 0 17 6 28 19 31 11 3 22 12 25 20 5 11 -1 14 -26 11 -55 -5
-58 -22 -58 -324 0 -250 1 -272 18 -287 25 -23 58 -21 83 4 20 20 20 29 17
258 l-3 237 77 -4 c85 -5 134 8 143 39 10 31 -3 54 -48 87 -23 16 -51 39 -62
49 -11 10 -108 90 -215 178 -107 88 -201 165 -208 172 -7 7 -34 29 -60 50 -26
21 -67 55 -91 75 -46 40 -47 40 -71 31z"/>
<path d="M1035 2652 c-3 -8 -12 -12 -21 -8 -8 3 -12 2 -9 -4 3 -6 1 -10 -4
-10 -11 0 -38 -20 -73 -52 -10 -10 -20 -18 -22 -18 -2 0 -21 -15 -41 -32 -20
-18 -39 -33 -42 -33 -4 0 -21 -13 -39 -30 -61 -57 -109 -95 -120 -95 -7 0 -19
-11 -28 -25 -9 -14 -21 -23 -25 -20 -5 3 -20 -4 -32 -15 -13 -11 -20 -19 -16
-20 4 0 -1 -10 -13 -22 -22 -24 -26 -43 -10 -53 5 -3 7 0 4 9 -3 9 3 19 17 27
20 10 280 214 328 257 9 7 52 42 95 78 79 63 80 64 100 46 29 -26 65 -57 176
-149 252 -209 306 -250 315 -241 6 5 -72 93 -85 94 -5 1 -15 2 -21 3 -5 0 -7
6 -4 11 3 6 1 10 -5 10 -7 0 -25 14 -40 30 -15 17 -32 30 -37 30 -4 0 -16 15
-27 33 -11 18 -21 27 -23 19 -3 -8 -16 -1 -38 20 -129 126 -245 198 -260 160z"/>
<path d="M784 2286 c-6 -15 33 -76 49 -76 5 0 45 -35 88 -77 53 -51 83 -73 89
-67 7 7 -15 37 -66 90 -154 161 -150 157 -160 130z"/>
<path d="M1211 2286 c-29 -16 -50 -52 -51 -87 0 -19 -43 -68 -186 -210 -102
-101 -190 -192 -195 -202 -14 -25 14 -67 43 -67 15 0 83 61 214 191 173 172
196 192 228 194 45 2 84 37 92 82 9 46 -1 52 -34 20 -37 -35 -69 -35 -83 0 -9
24 -7 29 21 51 16 13 30 28 30 33 0 13 -51 10 -79 -5z m1 -153 c-13 -7 -28
-10 -33 -7 -5 3 -8 1 -7 -5 4 -15 -118 -137 -132 -133 -8 3 -10 0 -5 -8 5 -9
4 -11 -3 -6 -7 4 -12 1 -12 -7 0 -15 -47 -63 -55 -56 -6 6 144 164 156 164 5
0 23 20 39 45 33 50 62 66 71 41 4 -10 -3 -20 -19 -28z m-257 -233 c4 -6 3 -9
-2 -8 -4 2 -10 -1 -12 -7 -3 -5 -13 -19 -23 -29 -10 -11 -18 -23 -18 -27 0 -4
-8 -6 -17 -5 -10 0 -17 -5 -15 -12 1 -8 -2 -11 -8 -7 -5 3 11 28 38 55 55 57
49 53 57 40z"/>
<path d="M1120 1955 l-35 -36 101 -99 c56 -55 108 -100 117 -100 22 0 57 35
57 56 0 15 -186 214 -200 214 -3 0 -22 -16 -40 -35z m110 -87 c35 -35 65 -72
67 -83 3 -16 -1 -15 -28 10 -73 70 -107 106 -113 120 -10 28 10 15 74 -47z"/>
<path d="M787 1589 c-23 -32 -10 -54 66 -124 72 -65 109 -82 47 -22 -43 42
-63 74 -55 87 10 16 46 1 81 -34 80 -81 144 -138 144 -130 0 6 -51 63 -112
127 -118 122 -143 137 -171 96z m57 -24 c3 -9 -1 -18 -10 -22 -19 -7 -28 2
-21 22 8 19 23 19 31 0z"/>
<path d="M1285 1600 c-11 -4 -60 -49 -109 -99 l-89 -91 26 -20 c14 -11 29 -20
34 -20 4 0 1 6 -7 13 -27 21 -17 39 67 113 61 55 86 71 102 67 12 -3 21 -9 21
-14 0 -5 -28 -38 -62 -75 -83 -87 -96 -113 -22 -44 129 121 130 124 94 160
-22 22 -26 23 -55 10z"/>
<path d="M555 1549 c-11 -16 -14 -129 -6 -174 6 -34 8 -25 13 55 2 52 8 103
12 113 9 19 -8 24 -19 6z"/>
<path d="M630 1534 c6 -14 10 -86 10 -160 0 -83 4 -134 10 -134 15 0 13 293
-2 308 -20 20 -28 14 -18 -14z"/>
<path d="M1476 1538 c-10 -38 -7 -395 3 -379 5 8 10 87 10 175 1 89 4 176 7
194 7 36 -10 45 -20 10z"/>
<path d="M1550 1546 c0 -8 3 -17 8 -19 4 -3 8 -101 10 -218 2 -118 5 -216 8
-218 6 -7 5 436 -2 453 -8 20 -24 21 -24 2z"/>
<path d="M1313 633 c-40 -50 -94 -137 -153 -242 -26 -47 -59 -107 -74 -133
-14 -26 -26 -52 -26 -58 0 -6 -7 -18 -15 -26 -20 -21 -19 -40 1 -23 16 13 64
105 64 123 0 5 6 17 14 25 8 9 31 48 52 86 20 39 55 96 76 127 21 31 38 60 38
63 0 3 14 24 32 46 17 21 29 41 26 44 -3 3 -19 -11 -35 -32z"/>
<path d="M770 548 c0 -9 4 -18 8 -20 5 -1 42 -70 82 -153 41 -82 76 -152 79
-155 3 -3 14 -21 24 -40 12 -25 15 -28 11 -10 -8 34 -172 361 -190 380 -12 12
-14 12 -14 -2z"/>
</g>
</svg>
